<svg width="203" height="67" viewBox="0 0 203 67" fill="none" xmlns="http://www.w3.org/2000/svg">
<rect width="202.039" height="66.9802" rx="10" fill="black"/>
<path d="M41.8193 33.994C41.8375 32.5964 42.2118 31.2261 42.9074 30.0105C43.6031 28.7949 44.5974 27.7735 45.798 27.0415C45.0353 25.9612 44.0291 25.0721 42.8594 24.4449C41.6896 23.8177 40.3886 23.4697 39.0595 23.4284C36.2242 23.1332 33.4757 25.111 32.0308 25.111C30.5582 25.111 28.3337 23.4577 25.9384 23.5066C24.389 23.5562 22.879 24.003 21.5555 24.8035C20.232 25.604 19.1401 26.7309 18.3863 28.0743C15.121 33.6814 17.5566 41.9216 20.6847 46.4538C22.2496 48.6732 24.0785 51.1522 26.4718 51.0643C28.8135 50.968 29.6881 49.5832 32.5152 49.5832C35.3158 49.5832 36.1364 51.0643 38.5781 51.0083C41.0911 50.968 42.6743 48.7792 44.1844 46.5389C45.3088 44.9576 46.174 43.2099 46.748 41.3605C45.2881 40.7481 44.0422 39.723 43.1657 38.413C42.2893 37.103 41.821 35.5662 41.8193 33.994ZM37.2073 20.4476C38.5775 18.8163 39.2525 16.7196 39.089 14.6026C36.9957 14.8207 35.0621 15.8129 33.6734 17.3816C32.9944 18.148 32.4744 19.0395 32.1431 20.0054C31.8117 20.9712 31.6756 21.9923 31.7424 23.0103C32.7894 23.021 33.8253 22.7959 34.7719 22.352C35.7185 21.9081 36.5512 21.257 37.2073 20.4476ZM71.4224 45.446H63.4306L61.5114 51.0663H58.1262L65.696 30.2723H69.2129L76.7826 51.0663H73.3399L71.4224 45.446ZM64.2582 42.8523H70.593L67.4702 33.731H67.3827L64.2582 42.8523ZM93.1305 43.487C93.1305 48.198 90.588 51.2248 86.7513 51.2248C85.7794 51.2753 84.8128 51.0533 83.9622 50.5842C83.1115 50.1151 82.4113 49.4179 81.9416 48.5724H81.869V56.0816H78.7314V35.9058H81.7686V38.4275H81.8263C82.3176 37.5861 83.0296 36.8925 83.8867 36.4205C84.7437 35.9486 85.7138 35.7159 86.6936 35.7472C90.5732 35.7472 93.1305 38.7888 93.1305 43.4868V43.487ZM89.9054 43.487C89.9054 40.4176 88.3062 38.3997 85.8659 38.3997C83.4684 38.3997 81.856 40.46 81.856 43.4868C81.856 46.5416 83.4684 48.5873 85.8659 48.5873C88.3062 48.5873 89.9054 46.5841 89.9054 43.4868V43.487ZM109.955 43.487C109.955 48.198 107.413 51.2248 103.576 51.2248C102.604 51.2753 101.637 51.0532 100.787 50.5841C99.936 50.115 99.2358 49.4179 98.7662 48.5724H98.6936V56.0816H95.5559V35.9058H98.593V38.4275H98.6507C99.1419 37.5861 99.854 36.8925 100.711 36.4205C101.568 35.9486 102.538 35.7159 103.518 35.7472C107.398 35.7472 109.955 38.7888 109.955 43.4868V43.487ZM106.73 43.487C106.73 40.4176 105.131 38.3997 102.69 38.3997C100.293 38.3997 98.6804 40.46 98.6804 43.4868C98.6804 46.5416 100.293 48.5873 102.69 48.5873C105.131 48.5873 106.73 46.5841 106.73 43.4868V43.487ZM121.075 45.2727C121.307 47.3346 123.327 48.6886 126.087 48.6886C128.732 48.6886 130.634 47.3346 130.634 45.4753C130.634 43.8612 129.487 42.8949 126.77 42.2326L124.052 41.5834C120.202 40.6611 118.415 38.8754 118.415 35.9776C118.415 32.3899 121.568 29.9257 126.044 29.9257C130.474 29.9257 133.512 32.3899 133.614 35.9776H130.446C130.257 33.9026 128.527 32.6499 125.999 32.6499C123.472 32.6499 121.742 33.9173 121.742 35.7618C121.742 37.232 122.847 38.0971 125.549 38.7592L127.859 39.3218C132.161 40.3307 133.948 42.0445 133.948 45.086C133.948 48.9763 130.824 51.4129 125.854 51.4129C121.205 51.4129 118.065 49.0334 117.863 45.2725L121.075 45.2727ZM140.72 32.3182V35.9058H143.627V38.3702H140.72V46.728C140.72 48.0264 141.302 48.6314 142.58 48.6314C142.925 48.6254 143.27 48.6014 143.612 48.5594V51.0092C143.038 51.1156 142.454 51.1637 141.869 51.1528C138.775 51.1528 137.568 50.0001 137.568 47.0599V38.3702H135.345V35.9058H137.568V32.3182H140.72ZM145.31 43.487C145.31 38.7168 148.143 35.7194 152.56 35.7194C156.992 35.7194 159.812 38.7168 159.812 43.487C159.812 48.27 157.007 51.2543 152.56 51.2543C148.115 51.2543 145.31 48.27 145.31 43.487ZM156.615 43.487C156.615 40.2148 155.103 38.2834 152.56 38.2834C150.018 38.2834 148.507 40.2294 148.507 43.487C148.507 46.7722 150.018 48.6886 152.56 48.6886C155.103 48.6886 156.615 46.7722 156.615 43.487ZM162.399 35.9058H165.391V38.4862H165.464C165.666 37.6803 166.142 36.9681 166.812 36.4693C167.482 35.9705 168.304 35.7155 169.141 35.7472C169.502 35.746 169.863 35.7849 170.216 35.8633V38.7741C169.759 38.6357 169.283 38.5722 168.806 38.586C168.35 38.5677 167.896 38.6474 167.474 38.8197C167.052 38.9919 166.673 39.2527 166.362 39.5841C166.052 39.9155 165.817 40.3096 165.674 40.7394C165.532 41.1692 165.485 41.6245 165.536 42.074V51.0663H162.399V35.9058ZM184.682 46.6134C184.26 49.3656 181.558 51.2543 178.1 51.2543C173.653 51.2543 170.893 48.2995 170.893 43.5588C170.893 38.8035 173.668 35.7194 177.968 35.7194C182.198 35.7194 184.857 38.6008 184.857 43.1974V44.2636H174.061V44.4516C174.011 45.0096 174.081 45.5717 174.267 46.1005C174.453 46.6294 174.751 47.113 175.14 47.5192C175.528 47.9253 176 48.2448 176.523 48.4563C177.046 48.6678 177.608 48.7665 178.173 48.7459C178.914 48.8148 179.658 48.6445 180.294 48.2603C180.93 47.8761 181.425 47.2985 181.703 46.6134H184.682ZM174.076 42.0888H181.718C181.746 41.5871 181.669 41.085 181.492 40.6141C181.316 40.1432 181.043 39.7137 180.691 39.3523C180.339 38.991 179.915 38.7058 179.447 38.5145C178.978 38.3233 178.475 38.2301 177.968 38.2409C177.457 38.2379 176.951 38.3353 176.478 38.5274C176.005 38.7196 175.575 39.0027 175.214 39.3604C174.852 39.7182 174.565 40.1434 174.369 40.6117C174.174 41.08 174.074 41.582 174.076 42.0888ZM63.865 14.6205C64.5228 14.5737 65.1829 14.6723 65.7977 14.9091C66.4125 15.1459 66.9666 15.5151 67.4201 15.9901C67.8735 16.465 68.2151 17.0339 68.42 17.6556C68.625 18.2773 68.6883 18.9364 68.6053 19.5853C68.6053 22.7772 66.8658 24.6121 63.865 24.6121H60.226V14.6204L63.865 14.6205ZM61.7908 23.199H63.6902C64.1603 23.2268 64.6307 23.1504 65.0672 22.9752C65.5037 22.8 65.8953 22.5305 66.2135 22.1863C66.5318 21.8421 66.7686 21.4318 66.9068 20.9854C67.045 20.5389 67.0811 20.0675 67.0125 19.6055C67.0761 19.1453 67.0364 18.6769 66.8961 18.2337C66.7557 17.7905 66.5183 17.3836 66.2008 17.0421C65.8833 16.7006 65.4936 16.433 65.0595 16.2585C64.6255 16.0839 64.1579 16.0067 63.6902 16.0325H61.7908V23.199ZM70.3729 20.8386C70.3251 20.3431 70.3822 19.8432 70.5406 19.3708C70.6991 18.8985 70.9553 18.4642 71.2929 18.0959C71.6304 17.7275 72.0419 17.4332 72.5009 17.2318C72.9599 17.0304 73.4562 16.9263 73.9581 16.9263C74.46 16.9263 74.9564 17.0304 75.4154 17.2318C75.8744 17.4332 76.2859 17.7275 76.6234 18.0959C76.961 18.4642 77.2172 18.8985 77.3757 19.3708C77.5341 19.8432 77.5912 20.3431 77.5434 20.8386C77.5923 21.3347 77.5359 21.8355 77.3779 22.3087C77.22 22.7819 76.964 23.2171 76.6263 23.5862C76.2886 23.9554 75.8768 24.2505 75.4173 24.4524C74.9578 24.6543 74.4607 24.7586 73.9581 24.7586C73.4556 24.7586 72.9585 24.6543 72.499 24.4524C72.0395 24.2505 71.6277 23.9554 71.29 23.5862C70.9523 23.2171 70.6963 22.7819 70.5383 22.3087C70.3804 21.8355 70.324 21.3347 70.3729 20.8386ZM76.0002 20.8386C76.0002 19.2041 75.2599 18.2483 73.9607 18.2483C72.6564 18.2483 71.9228 19.2041 71.9228 20.8386C71.9228 22.4862 72.6566 23.4346 73.9607 23.4346C75.2599 23.4346 76.0002 22.4796 76.0002 20.8386ZM87.0753 24.612H85.5186L83.9474 19.0586H83.8287L82.2641 24.612H80.7225L78.6269 17.0717H80.1486L81.5106 22.8253H81.6227L83.1858 17.0717H84.6252L86.1883 22.8253H86.307L87.6622 17.0717H89.1627L87.0753 24.612ZM90.9252 17.0718H92.3696V18.2696H92.4817C92.6719 17.8394 92.9927 17.4787 93.3994 17.2379C93.8061 16.997 94.2784 16.8881 94.7505 16.9261C95.1205 16.8986 95.4919 16.9539 95.8373 17.088C96.1828 17.2221 96.4934 17.4316 96.7461 17.701C96.9988 17.9703 97.1872 18.2926 97.2973 18.6439C97.4074 18.9952 97.4363 19.3667 97.382 19.7306V24.6118H95.8816V20.1044C95.8816 18.8927 95.3506 18.29 94.241 18.29C93.9898 18.2784 93.7391 18.3209 93.506 18.4143C93.273 18.5078 93.063 18.6502 92.8906 18.8317C92.7182 19.0132 92.5874 19.2295 92.5071 19.4658C92.4268 19.7021 92.3991 19.9528 92.4256 20.2008V24.612H90.9252V17.0718ZM99.7728 14.1282H101.273V24.612H99.7728V14.1282ZM103.359 20.8386C103.311 20.343 103.368 19.843 103.527 19.3706C103.685 18.8982 103.941 18.4639 104.279 18.0955C104.617 17.7271 105.028 17.4327 105.487 17.2313C105.946 17.0298 106.443 16.9258 106.945 16.9258C107.447 16.9258 107.943 17.0298 108.402 17.2313C108.861 17.4327 109.273 17.7271 109.61 18.0955C109.948 18.4639 110.204 18.8982 110.363 19.3706C110.521 19.843 110.578 20.343 110.53 20.8386C110.579 21.3346 110.522 21.8353 110.364 22.3083C110.206 22.7814 109.95 23.2164 109.612 23.5854C109.275 23.9544 108.863 24.2493 108.404 24.4511C107.944 24.6529 107.447 24.7572 106.945 24.7572C106.442 24.7572 105.945 24.6529 105.486 24.4511C105.026 24.2493 104.615 23.9544 104.277 23.5854C103.939 23.2164 103.683 22.7814 103.525 22.3083C103.367 21.8353 103.31 21.3346 103.359 20.8386ZM108.986 20.8386C108.986 19.2041 108.246 18.2483 106.947 18.2483C105.642 18.2483 104.909 19.2041 104.909 20.8386C104.909 22.4862 105.643 23.4346 106.947 23.4346C108.246 23.4346 108.986 22.4796 108.986 20.8386ZM112.11 22.4796C112.11 21.1223 113.129 20.3398 114.938 20.2286L116.997 20.1109V19.46C116.997 18.6636 116.466 18.214 115.441 18.214C114.603 18.214 114.023 18.5189 113.856 19.0521H112.403C112.557 17.7569 113.785 16.9263 115.51 16.9263C117.416 16.9263 118.491 17.8674 118.491 19.46V24.612H117.046V23.5523H116.928C116.687 23.9324 116.348 24.2423 115.947 24.4503C115.546 24.6583 115.096 24.7569 114.644 24.7362C114.325 24.7691 114.002 24.7353 113.697 24.6371C113.392 24.5388 113.111 24.3781 112.872 24.1655C112.634 23.9529 112.442 23.6931 112.311 23.4027C112.18 23.1123 112.111 22.7979 112.11 22.4796ZM116.997 21.8353V21.2048L115.14 21.3226C114.093 21.392 113.619 21.7454 113.619 22.41C113.619 23.0887 114.212 23.4837 115.028 23.4837C115.267 23.5077 115.509 23.4837 115.739 23.4133C115.968 23.3428 116.181 23.2272 116.365 23.0734C116.549 22.9196 116.699 22.7307 116.808 22.518C116.916 22.3053 116.981 22.0732 116.997 21.8353ZM120.463 20.8386C120.463 18.456 121.698 16.9467 123.619 16.9467C124.094 16.925 124.565 17.0379 124.978 17.2721C125.391 17.5064 125.728 17.8524 125.95 18.2696H126.062V14.1281H127.563V24.6118H126.125V23.4204H126.006C125.767 23.8348 125.418 24.1765 124.997 24.4084C124.577 24.6403 124.1 24.7536 123.619 24.736C121.685 24.736 120.463 23.2266 120.463 20.8385V20.8386ZM122.013 20.8386C122.013 22.4378 122.773 23.4003 124.044 23.4003C125.309 23.4003 126.09 22.424 126.09 20.845C126.09 19.2736 125.3 18.2835 124.044 18.2835C122.781 18.2835 122.013 19.2524 122.013 20.8386ZM133.77 20.8386C133.723 20.3431 133.78 19.8432 133.938 19.3708C134.097 18.8985 134.353 18.4642 134.69 18.0959C135.028 17.7275 135.439 17.4332 135.898 17.2318C136.357 17.0304 136.854 16.9263 137.356 16.9263C137.858 16.9263 138.354 17.0304 138.813 17.2318C139.272 17.4332 139.683 17.7275 140.021 18.0959C140.359 18.4642 140.615 18.8985 140.773 19.3708C140.932 19.8432 140.989 20.3431 140.941 20.8386C140.99 21.3347 140.933 21.8355 140.775 22.3087C140.617 22.7819 140.361 23.2171 140.024 23.5862C139.686 23.9554 139.274 24.2505 138.815 24.4524C138.355 24.6543 137.858 24.7586 137.356 24.7586C136.853 24.7586 136.356 24.6543 135.897 24.4524C135.437 24.2505 135.025 23.9554 134.688 23.5862C134.35 23.2171 134.094 22.7819 133.936 22.3087C133.778 21.8355 133.722 21.3347 133.77 20.8386ZM139.398 20.8386C139.398 19.2041 138.657 18.2483 137.358 18.2483C136.054 18.2483 135.32 19.2041 135.32 20.8386C135.32 22.4862 136.054 23.4346 137.358 23.4346C138.657 23.4346 139.398 22.4796 139.398 20.8386ZM142.954 17.0718H144.399V18.2696H144.511C144.701 17.8394 145.022 17.4787 145.428 17.2379C145.835 16.997 146.307 16.8881 146.779 16.9261C147.149 16.8986 147.521 16.9539 147.866 17.088C148.212 17.2221 148.522 17.4316 148.775 17.701C149.028 17.9703 149.216 18.2926 149.326 18.6439C149.436 18.9952 149.465 19.3667 149.411 19.7306V24.6118H147.911V20.1044C147.911 18.8927 147.38 18.29 146.27 18.29C146.019 18.2784 145.768 18.3209 145.535 18.4143C145.302 18.5078 145.092 18.6502 144.92 18.8317C144.747 19.0132 144.616 19.2295 144.536 19.4658C144.456 19.7021 144.428 19.9528 144.455 20.2008V24.612H142.954L142.954 17.0718ZM157.889 15.1945V17.1062H159.536V18.3595H157.889V22.2367C157.889 23.0265 158.217 23.3725 158.964 23.3725C159.155 23.3718 159.346 23.3603 159.536 23.338V24.5776C159.267 24.6254 158.994 24.6509 158.72 24.6537C157.052 24.6537 156.387 24.0714 156.387 22.6178V18.3595H155.18V17.106H156.387V15.1947L157.889 15.1945ZM161.586 14.1282H163.073V18.2835H163.192C163.391 17.8492 163.721 17.4865 164.136 17.2448C164.55 17.0031 165.03 16.8941 165.51 16.9327C165.878 16.9128 166.246 16.9737 166.587 17.1111C166.929 17.2485 167.236 17.459 167.486 17.7275C167.736 17.996 167.923 18.3159 168.034 18.6645C168.145 19.013 168.177 19.3816 168.128 19.7438V24.612H166.626V20.1109C166.626 18.9064 166.061 18.2966 165.001 18.2966C164.743 18.2756 164.483 18.3108 164.24 18.3996C163.998 18.4885 163.778 18.6288 163.595 18.8109C163.413 18.993 163.273 19.2124 163.185 19.4537C163.097 19.6951 163.063 19.9526 163.086 20.2082V24.612H161.586V14.1282ZM176.877 22.5759C176.673 23.2651 176.231 23.8612 175.629 24.26C175.027 24.6588 174.302 24.8349 173.583 24.7575C173.082 24.7706 172.584 24.6754 172.124 24.4787C171.664 24.2819 171.252 23.9881 170.918 23.6178C170.584 23.2475 170.335 22.8095 170.189 22.3343C170.042 21.859 170.002 21.3579 170.071 20.8656C170.004 20.3718 170.045 19.8695 170.191 19.3928C170.337 18.9161 170.584 18.4761 170.917 18.1025C171.249 17.729 171.659 17.4306 172.117 17.2277C172.576 17.0247 173.074 16.9219 173.576 16.9261C175.691 16.9261 176.968 18.3595 176.968 20.7273V21.2465H171.599V21.3299C171.576 21.6066 171.611 21.8851 171.702 22.1476C171.793 22.4101 171.939 22.6507 172.13 22.8541C172.32 23.0575 172.552 23.2191 172.809 23.3286C173.066 23.4381 173.344 23.4931 173.624 23.49C173.983 23.5328 174.346 23.4687 174.668 23.3059C174.99 23.1431 175.256 22.889 175.432 22.5759H176.877ZM171.599 20.1461H175.439C175.458 19.893 175.423 19.6388 175.337 19.3998C175.251 19.1608 175.116 18.9424 174.94 18.7584C174.763 18.5745 174.55 18.4291 174.314 18.3317C174.078 18.2343 173.823 18.1869 173.568 18.1927C173.308 18.1895 173.051 18.2378 172.81 18.3348C172.57 18.4319 172.352 18.5756 172.168 18.7577C171.985 18.9397 171.84 19.1564 171.742 19.3948C171.644 19.6332 171.596 19.8887 171.599 20.1461Z" fill="white"/>
</svg>
