<svg width="203" height="67" viewBox="0 0 203 67" fill="none" xmlns="http://www.w3.org/2000/svg">
<rect width="202.039" height="66.9803" rx="10" fill="black"/>
<path d="M70.9657 17.1528C70.9657 18.5557 70.5944 19.6729 69.8507 20.5063C69.006 21.4973 67.9051 21.9931 66.5517 21.9931C65.2557 21.9931 64.1538 21.4908 63.2476 20.4847C62.3398 19.4793 61.8867 18.2326 61.8867 16.7452C61.8867 15.2571 62.3398 14.0111 63.2476 13.0049C64.1538 11.9997 65.2557 11.4966 66.5517 11.4966C67.1949 11.4966 67.8105 11.6373 68.3951 11.9179C68.9797 12.1993 69.4485 12.5727 69.7993 13.0403L69.01 13.924C68.4156 13.1293 67.5971 12.7322 66.5517 12.7322C65.6066 12.7322 64.7892 13.1038 64.0994 13.8475C63.4095 14.592 63.0647 15.5573 63.0647 16.7452C63.0647 17.9331 63.4095 18.8984 64.0994 19.6429C64.7892 20.3866 65.6065 20.7582 66.5517 20.7582C67.5545 20.7582 68.3904 20.3846 69.0598 19.6364C69.4942 19.149 69.7454 18.4714 69.8127 17.6014H66.5517V16.3946H70.903C70.9451 16.657 70.9656 16.9088 70.9656 17.1528" fill="white"/>
<path d="M70.9657 17.1529H70.816C70.8147 18.5238 70.4569 19.5886 69.7448 20.388L69.7432 20.3893L69.7426 20.3907C68.9247 21.3475 67.8734 21.8237 66.5516 21.8258C65.2902 21.8237 64.2344 21.3423 63.3527 20.3664C62.473 19.3885 62.038 18.1947 62.0363 16.7453C62.038 15.2952 62.473 14.102 63.3527 13.1248C64.2344 12.1482 65.2902 11.6661 66.5516 11.6641C67.1755 11.6641 67.7695 11.8003 68.3359 12.0717C68.903 12.3452 69.3509 12.7036 69.6846 13.1485L69.7992 13.0404L69.6935 12.922L68.9042 13.8063L69.0099 13.9241L69.1252 13.8169C68.5031 12.9828 67.6298 12.5624 66.5517 12.5649C65.5714 12.5635 64.7091 12.9554 63.9958 13.7273C63.2756 14.5017 62.9138 15.5215 62.915 16.7453C62.9138 17.9692 63.2756 18.9888 63.9958 19.7633C64.7091 20.5352 65.5714 20.9271 66.5516 20.9257C67.5876 20.9277 68.4704 20.5345 69.1655 19.7549C69.6297 19.2341 69.8928 18.5128 69.9618 17.6158L69.9757 17.434H66.7013V16.5621H70.903V16.3947L70.7556 16.4241C70.7966 16.678 70.8159 16.9193 70.8159 17.1529H71.1152C71.1152 16.8984 71.0941 16.6368 71.0503 16.3647L71.0281 16.2272H66.4021V17.7689H69.8126V17.6015L69.6636 17.5871C69.5976 18.4297 69.3578 19.0642 68.9539 19.5182C68.3108 20.235 67.5216 20.5888 66.5517 20.5908C65.6416 20.5895 64.8693 20.2388 64.2034 19.5226C63.544 18.809 63.216 17.8978 63.2143 16.7453C63.216 15.5927 63.544 14.6816 64.2034 13.9679C64.8693 13.2517 65.6415 12.9011 66.5517 12.8998C67.5637 12.9025 68.3279 13.2766 68.8955 14.0321L69.0008 14.172L69.9051 13.1589L70.0021 13.0503L69.9138 12.9331C69.5461 12.4426 69.0562 12.0533 68.4541 11.7644C67.8508 11.4745 67.2141 11.3292 66.5517 11.3292C65.2212 11.3279 64.0731 11.8512 63.1418 12.8867C62.207 13.9202 61.7358 15.2193 61.7371 16.7453C61.7358 18.2706 62.207 19.5704 63.1424 20.6045C64.0731 21.6394 65.2212 22.162 66.5517 22.1607C67.9373 22.162 69.0867 21.6471 69.9589 20.6221L69.8506 20.5064L69.9565 20.6248C70.7317 19.7581 71.1163 18.5873 71.1153 17.1529H70.9656H70.9657ZM77.8638 12.956H73.7745V16.1416H77.4623V17.3489H73.7745V20.5345H77.8638V21.7688H72.6217V11.7218H77.8638V12.956Z" fill="white"/>
<path d="M77.8638 12.9558V12.7884H73.6249V16.3089H77.3126V17.1808L73.6248 17.1812V20.7017H77.7141V21.6011H72.7714V11.889H77.7141V12.9558H77.8638V12.7884V12.9558H78.0134V11.5541H72.472V21.936H78.0134V20.3668H73.9241V17.5161H77.6119V15.974H73.9241V13.1232H78.0134V12.9558H77.8638ZM82.7294 21.7686H81.5749V12.9557H79.0669V11.7214H85.2374V12.9557H82.7294V21.7685" fill="white"/>
<path d="M82.7296 21.7686V21.6011H81.7246V12.7884H79.2167V11.889H85.0879V12.7884H82.5799V21.7686H82.7296V21.6011V21.7686H82.8793V13.1232H85.3872V11.5541H78.9174V13.1232H81.4253V21.9359H82.8793V21.7685H82.7296V21.7686ZM89.7022 21.7686V11.7214H90.8556V21.7685H89.7022" fill="white"/>
<path d="M89.7021 21.7686H89.8517V11.889H90.7058V21.6011H89.7021V21.7686H89.8517H89.7021V21.936H91.0051V11.5541H89.5524V21.936H89.7021V21.7686V21.7686ZM95.9736 21.7686H94.8191V12.9557H92.3112V11.7214H98.4816V12.9557H95.9736V21.7685" fill="white"/>
<path d="M95.9739 21.7688V21.6013H94.9689V12.7885H92.4611V11.8892H98.3322V12.7885H95.8243V21.7687H95.9739V21.6013V21.7687H96.1236V13.1234H98.6315V11.5542H92.1618V13.1233H94.6696V21.9361H96.1236V21.7686H95.9739V21.7688ZM104.431 19.6292C105.095 20.382 105.909 20.7581 106.87 20.7581C107.832 20.7581 108.646 20.382 109.309 19.6292C109.975 18.8764 110.308 17.914 110.308 16.7452C110.308 15.5765 109.975 14.6141 109.309 13.8612C108.646 13.1083 107.832 12.7322 106.87 12.7322C105.909 12.7322 105.095 13.1083 104.431 13.8612C103.767 14.6141 103.434 15.5764 103.434 16.7452C103.434 17.914 103.767 18.8764 104.431 19.6292ZM110.163 20.4703C109.28 21.486 108.182 21.9931 106.87 21.9931C105.557 21.9931 104.46 21.486 103.579 20.4703C102.696 19.4557 102.256 18.2137 102.256 16.7452C102.256 15.2766 102.696 14.0345 103.579 13.0201C104.46 12.0041 105.557 11.4966 106.87 11.4966C108.175 11.4966 109.27 12.0068 110.157 13.0266C111.043 14.0463 111.486 15.2858 111.486 16.7452C111.486 18.2137 111.044 19.4557 110.163 20.4703Z" fill="white"/>
<path d="M104.431 19.6293L104.324 19.747C105.014 20.53 105.873 20.9277 106.87 20.9257C107.866 20.9277 108.727 20.53 109.416 19.747C110.109 18.9633 110.458 17.9495 110.457 16.7453C110.458 15.5412 110.109 14.5273 109.416 13.7435C108.727 12.9606 107.866 12.5629 106.87 12.5649C105.873 12.5629 105.014 12.9606 104.324 13.7435C103.632 14.5273 103.282 15.5412 103.284 16.7453C103.282 17.9494 103.632 18.9633 104.324 19.747L104.431 19.6293L104.537 19.5116C103.902 18.7887 103.585 17.8795 103.584 16.7453C103.585 15.6112 103.902 14.7019 104.537 13.979C105.178 13.2563 105.943 12.9018 106.87 12.8998C107.797 12.9018 108.564 13.2563 109.203 13.979C109.839 14.7019 110.156 15.6112 110.157 16.7453C110.156 17.8794 109.839 18.7887 109.203 19.5116C108.564 20.2343 107.797 20.5888 106.87 20.5907C105.943 20.5888 105.178 20.2343 104.537 19.5116L104.431 19.6293ZM110.163 20.4704L110.056 20.3541C109.198 21.3378 108.148 21.8238 106.87 21.8258C105.592 21.8237 104.542 21.3378 103.686 20.3541L103.682 20.3488L103.686 20.3541C102.829 19.3669 102.407 18.1765 102.406 16.7453C102.407 15.3141 102.829 14.1236 103.686 13.1366C104.542 12.1528 105.592 11.6662 106.87 11.6642C108.14 11.6662 109.187 12.1548 110.05 13.1437C110.909 14.1354 111.334 15.3239 111.336 16.7453C111.334 18.1765 110.91 19.3669 110.056 20.3541L110.163 20.4704L110.27 20.5867C111.177 19.5442 111.636 18.251 111.635 16.7453C111.636 15.2481 111.176 13.9576 110.264 12.9104C109.352 11.859 108.21 11.3274 106.87 11.3292C105.523 11.3274 104.377 11.8566 103.471 12.9038V12.9031C102.562 13.9463 102.105 15.2396 102.106 16.7453C102.105 18.251 102.562 19.5442 103.471 20.5874L103.475 20.5922L103.471 20.5867C104.377 21.634 105.523 22.162 106.87 22.1607C108.216 22.162 109.362 21.634 110.27 20.5867L110.163 20.4704ZM113.105 21.7689V11.7217H114.509L118.873 19.5376H118.923L118.873 17.6014V11.7217H120.028V21.7687H118.824L114.258 13.5741H114.208L114.258 15.5109V21.7687H113.105" fill="white"/>
<path d="M113.105 21.7686H113.255V11.889H114.426L118.79 19.7049H119.077L119.023 17.5987V11.889H119.878V21.6011H118.907L114.341 13.4064H114.054L114.108 15.5135V21.6011H113.105L113.105 21.7686L113.105 21.936H114.407V15.5081L114.358 13.5694L114.208 13.5739V13.7413H114.258V13.5739L114.131 13.6629L118.741 21.936H120.178V11.5541H118.724V17.6032L118.773 19.5419L118.923 19.5374V19.37H118.873V19.5374L119 19.4486L114.592 11.5541H112.955V21.936H113.105L113.105 21.7686ZM160.039 50.2352H162.831V29.3019H160.039L160.039 50.2352ZM185.192 36.8426L181.991 45.9182H181.895L178.572 36.8425H175.564L180.546 49.5274L177.706 56.5833H180.62L188.297 36.8425L185.192 36.8426ZM169.355 47.8576C168.439 47.8576 167.164 47.346 167.164 46.0798C167.164 44.464 168.753 43.8447 170.124 43.8447C171.353 43.8447 171.929 44.1409 172.676 44.5453C172.459 46.484 170.967 47.8576 169.355 47.8576ZM169.692 36.3846C167.67 36.3846 165.576 37.3813 164.71 39.5897L167.188 40.7475C167.718 39.5897 168.704 39.2122 169.74 39.2122C171.184 39.2122 172.652 40.1823 172.676 41.9059V42.1211C172.17 41.7979 171.088 41.3133 169.764 41.3133C167.092 41.3133 164.371 42.9557 164.371 46.026C164.371 48.827 166.562 50.6316 169.017 50.6316C170.895 50.6316 171.929 49.689 172.58 48.585H172.676V50.2006H175.371V42.1746C175.371 38.4588 172.893 36.3846 169.692 36.3846ZM152.433 39.3908H148.461V32.2154H152.433C154.521 32.2154 155.706 34.1494 155.706 35.803C155.706 37.4252 154.521 39.3908 152.433 39.3908ZM152.361 29.3019H145.67V50.2352H148.461V42.3042H152.361C155.456 42.3042 158.499 39.797 158.499 35.803C158.499 31.8091 155.456 29.3019 152.361 29.3019ZM115.873 47.8615C113.944 47.8615 112.329 46.0542 112.329 43.5718C112.329 41.0635 113.944 39.2287 115.873 39.2287C117.778 39.2287 119.273 41.0634 119.273 43.5718C119.273 46.0542 117.778 47.8615 115.873 47.8615ZM119.08 38.0147H118.983C118.356 37.1786 117.15 36.4232 115.632 36.4232C112.449 36.4232 109.532 39.5524 109.532 43.5718C109.532 47.5646 112.449 50.667 115.632 50.667C117.15 50.667 118.356 49.9114 118.983 49.0486H119.08V50.0736C119.08 52.7987 117.778 54.2554 115.68 54.2554C113.968 54.2554 112.907 52.8791 112.473 51.7193L110.038 52.8523C110.737 54.7407 112.594 57.0609 115.68 57.0609C118.959 57.0609 121.732 54.9022 121.732 49.642V36.8549H119.08V38.0147ZM123.661 50.2352H126.457V29.3011H123.661V50.2352ZM130.58 43.3292C130.508 40.5773 132.485 39.1749 133.907 39.1749C135.017 39.1749 135.957 39.795 136.27 40.6861L130.58 43.3292ZM139.26 40.9554C138.73 39.3633 137.114 36.4232 133.811 36.4232C130.532 36.4232 127.808 39.3097 127.808 43.5451C127.808 47.5378 130.508 50.667 134.124 50.667C137.042 50.667 138.73 48.6705 139.429 47.5108L137.259 45.8919C136.536 47.0791 135.547 47.8615 134.124 47.8615C132.702 47.8615 131.69 47.1328 131.038 45.7035L139.549 41.7646L139.26 40.9554ZM71.4526 38.6085V41.6298H77.9141C77.7212 43.3292 77.2148 44.5701 76.4432 45.4334C75.5032 46.4859 74.0324 47.6456 71.4525 47.6456C67.4742 47.6456 64.3642 44.0578 64.3642 39.6066C64.3642 35.1555 67.4742 31.5672 71.4526 31.5672C73.5986 31.5672 75.1653 32.5116 76.3228 33.7255L78.2275 31.5946C76.6122 29.8677 74.4661 28.5459 71.4526 28.5459C66.0034 28.5459 61.4224 33.5098 61.4224 39.6066C61.4224 45.7035 66.0034 50.667 71.4526 50.667C74.3942 50.667 76.6122 49.5884 78.3479 47.5646C80.1322 45.5682 80.687 42.7628 80.687 40.4969C80.687 39.795 80.6389 39.1481 80.5419 38.6085H71.4526ZM88.0331 47.8615C86.1038 47.8615 84.4401 46.0809 84.4401 43.5451C84.4401 40.9822 86.1038 39.2287 88.0331 39.2287C89.9616 39.2287 91.6253 40.9822 91.6253 43.5451C91.6253 46.081 89.9616 47.8615 88.0331 47.8615ZM88.0331 36.4232C84.5125 36.4232 81.6433 39.4175 81.6433 43.5451C81.6433 47.6456 84.5125 50.667 88.0331 50.667C91.5529 50.667 94.4221 47.6456 94.4221 43.5451C94.4221 39.4175 91.5529 36.4232 88.0331 36.4232ZM101.971 47.8615C100.043 47.8615 98.3787 46.0809 98.3787 43.5451C98.3787 40.9822 100.043 39.2287 101.971 39.2287C103.9 39.2287 105.563 40.9822 105.563 43.5451C105.563 46.081 103.9 47.8615 101.971 47.8615ZM101.971 36.4232C98.4507 36.4232 95.582 39.4175 95.582 43.5451C95.582 47.6456 98.4507 50.667 101.971 50.667C105.491 50.667 108.36 47.6456 108.36 43.5451C108.36 39.4175 105.491 36.4232 101.971 36.4232Z" fill="white"/>
<path d="M15.727 12.7455C15.2248 13.2525 14.925 14.0981 14.925 15.2207V14.9669V52.0089V51.7649C14.925 52.8015 15.1821 53.6021 15.6176 54.1177L15.7288 54.2368V54.2373C16.0812 54.5932 16.5332 54.7821 17.0512 54.7815C17.5574 54.7815 18.1268 54.601 18.7278 54.2197L40.4511 40.4096L47.9129 35.6654C48.8605 35.063 49.3925 34.2859 49.4815 33.4944V33.4911C49.3925 32.6978 48.8605 31.9213 47.9129 31.3188L40.4505 26.5752L18.7279 12.765C18.1256 12.3831 17.5557 12.2019 17.0483 12.2019C16.5309 12.2019 16.0795 12.3903 15.7271 12.7455H15.727Z" fill="#00C1FF"/>
<path d="M15.7288 54.2365L15.6176 54.1174C15.1821 53.6019 14.925 52.8012 14.925 51.7646V52.0086V14.9758V15.2204C14.925 14.0978 15.2248 13.2522 15.727 12.7452L34.2694 33.4915L15.7288 54.2365Z" fill="url(#paint0_linear_48_3)"/>
<path d="M40.4509 40.4095L34.2693 33.4918L40.4504 26.5752L47.9128 31.3188C48.8604 31.9213 49.3924 32.6977 49.4813 33.4911V33.4943C49.3924 34.2859 48.8604 35.063 47.9128 35.6653L40.451 40.4095" fill="url(#paint1_linear_48_3)"/>
<path d="M17.0511 54.7811C16.5332 54.7817 16.0812 54.5926 15.7288 54.2368V54.2363L34.2694 33.4913L40.4511 40.409L18.7277 54.2193C18.1268 54.6006 17.5573 54.7811 17.0511 54.7811Z" fill="url(#paint2_linear_48_3)"/>
<path d="M34.2694 33.4921L15.7269 12.7458C16.0793 12.3905 16.5307 12.2022 17.048 12.2022C17.5555 12.2022 18.1255 12.3833 18.7277 12.7653L40.4504 26.5755L34.2693 33.4921" fill="url(#paint3_linear_48_3)"/>
<path d="M17.0519 55.0272C16.5339 55.0272 16.0814 54.8382 15.7289 54.4824L15.7283 54.483C15.7268 54.4813 15.7253 54.4798 15.7236 54.4785L15.6272 54.3731C15.6242 54.3698 15.6214 54.3659 15.6178 54.3621L15.729 54.2377C16.0814 54.5935 16.5333 54.7826 17.0514 54.7819C17.5575 54.7819 18.127 54.6014 18.728 54.2201L40.4512 40.4099L40.5904 40.5657L40.4494 40.6553L18.7279 54.4647C18.1802 54.8121 17.6592 54.9932 17.1886 55.0234C17.1431 55.0259 17.0975 55.0271 17.0519 55.0271" fill="url(#paint4_linear_48_3)"/>
<path d="M15.6176 54.3615C15.1821 53.8459 14.925 53.046 14.925 52.0086V51.7647C14.925 52.8013 15.1821 53.6019 15.6176 54.1175L15.7288 54.2365L15.6176 54.3615Z" fill="url(#paint5_linear_48_3)"/>
<path d="M40.5901 40.5645L40.4509 40.4087L47.9127 35.6646C48.8603 35.0623 49.3923 34.2851 49.4813 33.4936C49.4813 33.784 49.4233 34.0745 49.3083 34.3571C49.0761 34.9268 48.6109 35.4651 47.9127 35.9092L40.5901 40.5646" fill="url(#paint6_linear_48_3)"/>
<path d="M49.4813 33.4916C49.3924 32.6981 48.8604 31.9217 47.9128 31.3192L40.4503 26.5757L40.5895 26.4199H40.5901L47.9128 31.0752C48.9575 31.7398 49.4807 32.6156 49.4813 33.4916Z" fill="url(#paint7_linear_48_3)"/>
<path d="M14.925 15.2203V14.9645C14.925 14.8722 14.9272 14.782 14.9315 14.6944V14.6904C14.9315 14.6892 14.9315 14.6879 14.9319 14.6865V14.6767C14.9769 13.7838 15.2248 13.0873 15.6176 12.6222L15.727 12.7451C15.2248 13.2522 14.925 14.0978 14.925 15.2203Z" fill="url(#paint8_linear_48_3)"/>
<path d="M40.4503 26.5752L18.7276 12.7649C18.1254 12.383 17.5556 12.2018 17.0481 12.2018C16.5307 12.2018 16.0793 12.3902 15.7269 12.7454L15.6175 12.6224C15.6517 12.582 15.6872 12.5429 15.7239 12.5054C15.7251 12.5041 15.7269 12.5027 15.728 12.5014C16.0777 12.1489 16.5243 11.9605 17.037 11.9572H17.0481C17.5556 11.9572 18.1254 12.1384 18.7276 12.5205L40.5901 26.4189L40.5895 26.4194L40.4503 26.5752Z" fill="url(#paint9_linear_48_3)"/>
<defs>
<linearGradient id="paint0_linear_48_3" x1="26.7747" y1="14.5844" x2="9.03016" y2="30.4947" gradientUnits="userSpaceOnUse">
<stop stop-color="#00A0FF"/>
<stop offset="0.00657" stop-color="#00A1FF"/>
<stop offset="0.2601" stop-color="#00BEFF"/>
<stop offset="0.5122" stop-color="#00D2FF"/>
<stop offset="0.7604" stop-color="#00DFFF"/>
<stop offset="1" stop-color="#00E3FF"/>
</linearGradient>
<linearGradient id="paint1_linear_48_3" x1="50.6359" y1="33.3723" x2="14.423" y2="33.3723" gradientUnits="userSpaceOnUse">
<stop stop-color="#FFE000"/>
<stop offset="0.4087" stop-color="#FFBD00"/>
<stop offset="0.7754" stop-color="#FFA500"/>
<stop offset="1" stop-color="#FF9C00"/>
</linearGradient>
<linearGradient id="paint2_linear_48_3" x1="37.1692" y1="40.0684" x2="7.12395" y2="66.8112" gradientUnits="userSpaceOnUse">
<stop stop-color="#FF3A44"/>
<stop offset="1" stop-color="#C31162"/>
</linearGradient>
<linearGradient id="paint3_linear_48_3" x1="10.948" y1="9.67001" x2="24.3407" y2="21.609" gradientUnits="userSpaceOnUse">
<stop stop-color="#32A071"/>
<stop offset="0.0685" stop-color="#2DA771"/>
<stop offset="0.4762" stop-color="#15CF74"/>
<stop offset="0.8009" stop-color="#06E775"/>
<stop offset="1" stop-color="#00F076"/>
</linearGradient>
<linearGradient id="paint4_linear_48_3" x1="37.1558" y1="44.8678" x2="13.0747" y2="66.46" gradientUnits="userSpaceOnUse">
<stop stop-color="#CC2E36"/>
<stop offset="1" stop-color="#9C0E4E"/>
</linearGradient>
<linearGradient id="paint5_linear_48_3" x1="17.3951" y1="14.5844" x2="1.76238" y2="28.6015" gradientUnits="userSpaceOnUse">
<stop stop-color="#008DE0"/>
<stop offset="0.00657" stop-color="#008DE0"/>
<stop offset="0.2601" stop-color="#00A7E0"/>
<stop offset="0.5122" stop-color="#00B8E0"/>
<stop offset="0.7604" stop-color="#00C4E0"/>
<stop offset="1" stop-color="#00C7E0"/>
</linearGradient>
<linearGradient id="paint6_linear_48_3" x1="50.6359" y1="33.492" x2="14.423" y2="33.492" gradientUnits="userSpaceOnUse">
<stop stop-color="#E0C500"/>
<stop offset="0.4087" stop-color="#E0A600"/>
<stop offset="0.7754" stop-color="#E09100"/>
<stop offset="1" stop-color="#E08900"/>
</linearGradient>
<linearGradient id="paint7_linear_48_3" x1="50.636" y1="33.4932" x2="14.4231" y2="33.4932" gradientUnits="userSpaceOnUse">
<stop stop-color="#FFE840"/>
<stop offset="0.4087" stop-color="#FFCE40"/>
<stop offset="0.7754" stop-color="#FFBC40"/>
<stop offset="1" stop-color="#FFB540"/>
</linearGradient>
<linearGradient id="paint8_linear_48_3" x1="17.3798" y1="14.6128" x2="2.39592" y2="27.4659" gradientUnits="userSpaceOnUse">
<stop stop-color="#40B8FF"/>
<stop offset="0.00657" stop-color="#40B9FF"/>
<stop offset="0.2601" stop-color="#40CEFF"/>
<stop offset="0.5122" stop-color="#40DDFF"/>
<stop offset="0.7604" stop-color="#40E7FF"/>
<stop offset="1" stop-color="#40EAFF"/>
</linearGradient>
<linearGradient id="paint9_linear_48_3" x1="10.9209" y1="14.0571" x2="21.6742" y2="23.699" gradientUnits="userSpaceOnUse">
<stop stop-color="#65B895"/>
<stop offset="0.0685" stop-color="#62BD95"/>
<stop offset="0.4762" stop-color="#50DB97"/>
<stop offset="0.8009" stop-color="#44ED98"/>
<stop offset="1" stop-color="#40F498"/>
</linearGradient>
</defs>
</svg>
